<svg width="17" height="21" fill="none" xmlns="http://www.w3.org/2000/svg"><path d="M1 6.6c0-2.64 0-3.96.82-4.78C2.64 1 3.96 1 6.6 1h3.733c2.64 0 3.96 0 4.78.82.82.82.82 2.14.82 4.78v7.467c0 2.64 0 3.96-.82 4.78-.82.82-2.14.82-4.78.82H6.6c-2.64 0-3.96 0-4.78-.82-.82-.82-.82-2.14-.82-4.78V6.6z" stroke="#637083" stroke-width="2"/><path d="M15.838 14.067h-11.2c-.868 0-1.302 0-1.658.095A2.8 2.8 0 001 16.142" stroke="#637083" stroke-width="2"/><path d="M4.734 5.667H12.2M4.734 8.933H9.4" stroke="#637083" stroke-width="2" stroke-linecap="round"/></svg>