<svg width="21" height="21" fill="none" xmlns="http://www.w3.org/2000/svg"><path d="M13.672 2.29l1.867.98c2.008 1.053 3.013 1.58 3.57 2.527.558.947.558 2.125.558 4.482v.109c0 2.356 0 3.535-.558 4.482-.558.946-1.562 1.473-3.57 2.527l-1.867.98c-1.638.86-2.457 1.29-3.339 1.29-.881 0-1.7-.43-3.339-1.29l-1.867-.98c-2.008-1.054-3.012-1.58-3.57-2.527C1 13.923 1 12.744 1 10.388v-.11c0-2.356 0-3.534.558-4.48.557-.948 1.561-1.475 3.57-2.529l1.866-.98C8.633 1.43 9.452 1 10.334 1c.88 0 1.7.43 3.338 1.29z" stroke="#637083" stroke-width="2" stroke-linecap="round"/><path d="M18.733 6.133L15 8m0 0l-.467.233-4.2 2.1M15 8v3.267M15 8L6.133 3.333m4.2 7l-8.4-4.2m8.4 4.2V19.2" stroke="#637083" stroke-width="2" stroke-linecap="round"/></svg>