<svg width="20" height="22" fill="none" xmlns="http://www.w3.org/2000/svg"><path d="M1 10.5c0-3.771 0-5.657 1.055-6.828C3.109 2.5 4.806 2.5 8.2 2.5h3.6c3.394 0 5.091 0 6.145 1.172C19 4.843 19 6.729 19 10.5v2c0 3.771 0 5.657-1.055 6.828C16.891 20.5 15.194 20.5 11.8 20.5H8.2c-3.394 0-5.091 0-6.145-1.172C1 18.157 1 16.271 1 12.5v-2z" stroke="#2E877E" stroke-width="2"/><path d="M5.5 2.5V1m9 1.5V1M1.45 7.5h17.1" stroke="#2E877E" stroke-width="2" stroke-linecap="round"/><path d="M15.4 15.5c0 .265-.095.52-.264.707a.857.857 0 01-.636.293.857.857 0 01-.636-.293 1.059 1.059 0 01-.264-.707c0-.265.095-.52.264-.707a.857.857 0 01.636-.293c.239 0 .468.105.636.293.17.187.264.442.264.707zm0-4c0 .265-.095.52-.264.707a.857.857 0 01-.636.293.857.857 0 01-.636-.293 1.059 1.059 0 01-.264-.707c0-.265.095-.52.264-.707a.857.857 0 01.636-.293c.239 0 .468.105.636.293.17.187.264.442.264.707zm-4.5 4c0 .265-.095.52-.264.707A.857.857 0 0110 16.5a.857.857 0 01-.636-.293A1.059 1.059 0 019.1 15.5c0-.265.095-.52.264-.707A.857.857 0 0110 14.5c.239 0 .468.105.636.293.17.187.264.442.264.707zm0-4c0 .265-.095.52-.264.707A.857.857 0 0110 12.5a.857.857 0 01-.636-.293A1.059 1.059 0 019.1 11.5c0-.265.095-.52.264-.707A.857.857 0 0110 10.5c.239 0 .468.105.636.293.17.187.264.442.264.707zm-4.5 4c0 .265-.095.52-.264.707a.857.857 0 01-.636.293.857.857 0 01-.636-.293A1.059 1.059 0 014.6 15.5c0-.265.095-.52.264-.707A.857.857 0 015.5 14.5c.239 0 .468.105.636.293.17.187.264.442.264.707zm0-4c0 .265-.095.52-.264.707a.857.857 0 01-.636.293.857.857 0 01-.636-.293A1.059 1.059 0 014.6 11.5c0-.265.095-.52.264-.707A.857.857 0 015.5 10.5c.239 0 .468.105.636.293.17.187.264.442.264.707z" fill="#2E877E"/></svg>