<svg width="19" height="22" fill="none" xmlns="http://www.w3.org/2000/svg"><path d="M18.92 14.982a1.275 1.275 0 00-.22-.363l-3.168-3.3a1.04 1.04 0 00-.75-.324c-.281 0-.551.117-.75.324-.199.207-.31.488-.31.781 0 .293.111.574.31.781l1.373 1.419H9.503c-.28 0-.549.116-.747.322-.198.207-.31.486-.31.778 0 .292.112.572.31.778.198.206.467.322.747.322h5.902l-1.373 1.419a1.14 1.14 0 000 1.562c.098.103.215.185.344.24a1.02 1.02 0 001.155-.24l3.168-3.3c.098-.103.173-.227.222-.363a1.143 1.143 0 000-.836zM11.615 19.8H3.168c-.28 0-.549-.116-.747-.322a1.124 1.124 0 01-.31-.778V3.3c0-.292.112-.572.31-.778.198-.206.467-.322.747-.322h5.279v3.3c0 .875.334 1.715.928 2.333.594.62 1.4.967 2.24.967h4.223c.208-.001.412-.066.585-.188a1.143 1.143 0 00.45-1.129 1.116 1.116 0 00-.286-.564l-6.335-6.6A1.13 1.13 0 009.957.11h-.095L9.566 0H3.168c-.84 0-1.646.348-2.24.967A3.371 3.371 0 000 3.3v15.4c0 .875.334 1.715.928 2.334.594.618 1.4.966 2.24.966h8.446c.28 0 .549-.116.747-.322.198-.207.31-.486.31-.778 0-.292-.112-.572-.31-.778a1.035 1.035 0 00-.747-.322zM10.558 3.751L13.293 6.6h-1.679c-.28 0-.548-.116-.746-.322a1.124 1.124 0 01-.31-.778V3.751z" fill="#277570"/></svg>