<svg width="21" height="21" fill="none" xmlns="http://www.w3.org/2000/svg"><path d="M19.195 8.092a1 1 0 10-2 0h2zm-15.39 0a1 1 0 10-2 0h2zm9.348 11.599l-.23-.973.23.973zm-5.306 0l.23-.973-.23.973zm5.639-16.565l-.71.705.71-.705zm5.804 7.266a1 1 0 101.42-1.41l-1.42 1.41zM7.514 3.126l.71.705-.71-.705zM.29 8.982a1 1 0 101.42 1.41L.29 8.982zm7.802 8.19l-.983-.185.983.184zm.02-.11l.983.185-.983-.184zm4.776 0l-.983.185.983-.184zm.02.11l.983-.185-.983.184zm-.306 2.355l-.902-.43.902.43zm-1.026-.17a1 1 0 001.806.859l-1.806-.86zm-3.178.17l-.903.43.903-.43zm-.78.689a1 1 0 001.806-.86l-1.806.86zm2.208-5.027l-.268-.963.268.963zm1.348 0l.268-.963-.268.963zm6.021-7.097v5.192h2V8.092h-2zm-13.39 5.192V8.092h-2v5.192h2zm9.118 5.434a10.537 10.537 0 01-4.846 0l-.46 1.946c1.896.448 3.87.448 5.766 0l-.46-1.946zm-4.846 0c-2.498-.59-4.272-2.838-4.272-5.434h-2c0 3.515 2.403 6.575 5.812 7.38l.46-1.946zm5.306 1.946c3.41-.805 5.812-3.865 5.812-7.38h-2c0 2.596-1.774 4.844-4.272 5.434l.46 1.946zm-.607-16.833l6.514 6.56 1.42-1.409-6.515-6.56-1.419 1.409zM6.805 2.42L.29 8.983l1.42 1.41L8.224 3.83l-1.42-1.41zm7.39 0c-.684-.688-1.266-1.278-1.793-1.682C11.852.316 11.246 0 10.5 0v2c.129 0 .311.038.684.324.395.304.868.778 1.592 1.507l1.42-1.41zM8.224 3.83c.724-.73 1.197-1.203 1.592-1.507.373-.286.555-.324.684-.324V0c-.746 0-1.353.316-1.902.739-.527.404-1.11.994-1.793 1.683l1.42 1.409zm.85 13.525l.02-.109-1.965-.369-.02.109 1.966.369zm2.831-.109l.02.109 1.966-.37-.02-.108-1.966.37zm-.205 1.85l-.124.26 1.806.859.123-.26-1.806-.859zm-4.205.86l.123.259 1.806-.86-.123-.259-1.806.86zm4.43-2.601c.111.59.032 1.2-.226 1.741l1.806.86c.44-.924.575-1.964.386-2.97l-1.966.369zm-4.816-.37a4.837 4.837 0 00.386 2.97l1.806-.859a2.836 2.836 0 01-.226-1.741l-1.966-.37zm2.984-.833a1.52 1.52 0 01.814 0l.535-1.927a3.522 3.522 0 00-1.884 0l.535 1.927zm3.778.725a3.4 3.4 0 00-2.43-2.652l-.534 1.927a1.4 1.4 0 01.998 1.094l1.966-.369zm-4.776.37c.1-.532.49-.954.998-1.095l-.535-1.927a3.4 3.4 0 00-2.429 2.652l1.966.37z" fill="#637083"/></svg>