<svg width="21" height="20" fill="none" xmlns="http://www.w3.org/2000/svg"><path fill-rule="evenodd" clip-rule="evenodd" d="M2.625 20h15.75c.697 0 1.364-.263 1.857-.732A2.437 2.437 0 0021 17.502V5.836c0-.663-.276-1.298-.768-1.766a2.695 2.695 0 00-1.857-.732H17.5v-.84C17.5 1.118 16.325 0 14.875 0h-8.75C4.676 0 3.5 1.119 3.5 2.498v.84h-.875C1.176 3.338 0 4.457 0 5.836v11.666c0 .663.277 1.298.77 1.766.492.469 1.16.732 1.855.732zM17.5 5.004v13.33h.875a.898.898 0 00.62-.243.814.814 0 00.255-.589V5.836a.813.813 0 00-.256-.589.898.898 0 00-.619-.243H17.5zm-3.505 13.33h1.755V2.499c0-.46-.391-.833-.875-.833h-8.75c-.483 0-.875.373-.875.833v15.837h1.745V14.17c0-.661.276-1.297.769-1.765a2.694 2.694 0 011.856-.732h1.75c.696 0 1.364.263 1.857.732a2.44 2.44 0 01.768 1.765v4.164zM3.5 5.005h-.875c-.483 0-.875.373-.875.832v11.666c0 .221.093.433.256.589a.897.897 0 00.619.244H3.5V5.004zm8.745 13.33h-3.5v-4.163c0-.22.093-.432.256-.588a.901.901 0 01.619-.244h1.75c.232 0 .455.088.618.244a.812.812 0 01.257.588v4.164z" fill="#637083"/><path fill-rule="evenodd" clip-rule="evenodd" d="M9.477 4.756h-.742c-.406 0-.735.392-.735.876 0 .483.33.875.735.875h.74l-.002.88c0 .483.329.875.735.876.405.001.735-.39.736-.874l.001-.882h.74c.407 0 .736-.392.736-.875 0-.484-.33-.876-.735-.876h-.739l.001-.88c0-.483-.328-.875-.734-.876-.406 0-.736.39-.737.874v.882z" fill="#637083"/></svg>