<svg width="22" height="22" fill="none" xmlns="http://www.w3.org/2000/svg"><path d="M10.459 0c.333 0 .654.12.896.333.242.214.388.507.408.818.02.31-.09.617-.303.856a1.336 1.336 0 01-.848.429l-.153.008H3.922c-.32 0-.63.11-.868.31a1.19 1.19 0 00-.43.77l-.01.143v14.666c0 .3.118.589.331.812.213.224.506.367.824.402l.153.009h5.883c.333 0 .654.12.896.333.242.214.388.506.408.817a1.17 1.17 0 01-.303.856 1.335 1.335 0 01-.848.43L9.805 22H3.922c-1 0-1.963-.357-2.69-.999a3.572 3.572 0 01-1.225-2.453L0 18.333V3.667C0 2.73.382 1.83 1.068 1.15A4.042 4.042 0 013.692.006L3.922 0h6.537zm7.461 6.678l3.697 3.458c.245.23.383.54.383.864 0 .324-.138.635-.383.864l-3.697 3.458a1.357 1.357 0 01-.925.358c-.347 0-.68-.13-.924-.359a1.184 1.184 0 01-.383-.864c0-.325.138-.636.383-.865l1.466-1.37h-7.078c-.347 0-.68-.128-.925-.358A1.183 1.183 0 019.152 11c0-.324.137-.635.382-.864.246-.23.578-.358.925-.358h7.078l-1.466-1.37a1.184 1.184 0 01-.383-.865c0-.324.138-.635.383-.864.245-.23.577-.358.924-.359.347 0 .68.129.925.358z" fill="#637083"/></svg>