<svg width="24" height="24" fill="none" xmlns="http://www.w3.org/2000/svg"><path d="M12.333 8.726a3.465 3.465 0 00-2 .411 3.329 3.329 0 00-1.392 1.456 3.207 3.207 0 00-.276 1.97 3.26 3.26 0 00.942 1.763c.493.48 1.127.8 1.815.915a3.472 3.472 0 002.025-.267 3.35 3.35 0 001.498-1.353 3.213 3.213 0 00-.553-3.946 3.433 3.433 0 00-2.06-.949zM20.482 12c-.003.358-.03.715-.081 1.069l2.39 1.822a.542.542 0 01.13.707l-2.262 3.804a.57.57 0 01-.303.241.587.587 0 01-.392-.005l-2.374-.93a.874.874 0 00-.802.09 8.758 8.758 0 01-1.14.645.838.838 0 00-.313.255.806.806 0 00-.153.369l-.356 2.462a.566.566 0 01-.195.334.595.595 0 01-.37.137H9.739a.597.597 0 01-.365-.131.569.569 0 01-.2-.325l-.355-2.458a.814.814 0 00-.157-.372.845.845 0 00-.32-.256 8.268 8.268 0 01-1.134-.646.86.86 0 00-.8-.088l-2.373.929a.587.587 0 01-.392.005.568.568 0 01-.303-.24l-2.262-3.804a.542.542 0 01.13-.707l2.02-1.542a.828.828 0 00.254-.323.804.804 0 00.064-.401 6.816 6.816 0 010-1.277.802.802 0 00-.067-.398.827.827 0 00-.254-.319l-2.02-1.542a.542.542 0 01-.125-.703l2.262-3.804a.568.568 0 01.303-.241.587.587 0 01.392.005l2.374.93a.874.874 0 00.802-.09 8.76 8.76 0 011.14-.645.838.838 0 00.313-.255.807.807 0 00.153-.369l.356-2.462a.566.566 0 01.195-.334A.596.596 0 019.74 1h4.523a.598.598 0 01.365.131.568.568 0 01.2.325l.355 2.458a.835.835 0 00.477.628c.395.186.774.402 1.134.646a.861.861 0 00.8.088l2.373-.929a.587.587 0 01.392-.005.568.568 0 01.303.24l2.262 3.804a.541.541 0 01-.13.707l-2.02 1.542a.827.827 0 00-.255.323.804.804 0 00-.066.401c.018.213.03.427.03.641z" stroke="#637083" stroke-width="2" stroke-linecap="round" stroke-linejoin="round"/></svg>