<svg width="25" height="25" fill="none" xmlns="http://www.w3.org/2000/svg"><path d="M11.667 3.333v-2.5a.834.834 0 011.666 0v2.5a.834.834 0 01-1.666 0zm7.5 9.167A6.666 6.666 0 1112.5 5.833a6.674 6.674 0 016.667 6.667zm-1.667 0a5 5 0 10-9.999 0 5 5 0 009.999 0zM5.244 6.423a.834.834 0 001.179-1.18L4.756 3.578a.834.834 0 00-1.179 1.18l1.667 1.666zm0 12.154l-1.667 1.667a.834.834 0 001.18 1.179l1.666-1.667a.835.835 0 00-1.18-1.179zm13.923-11.91a.834.834 0 00.59-.244l1.666-1.667a.834.834 0 10-1.18-1.179l-1.666 1.667a.833.833 0 00.59 1.423zm.59 11.91a.834.834 0 00-1.18 1.18l1.667 1.666a.835.835 0 001.36-.909.835.835 0 00-.181-.27l-1.667-1.667zM4.166 12.5a.833.833 0 00-.834-.833h-2.5a.834.834 0 000 1.666h2.5a.834.834 0 00.834-.833zm8.333 8.333a.833.833 0 00-.833.834v2.5a.834.834 0 001.666 0v-2.5a.834.834 0 00-.833-.834zm11.667-9.166h-2.5a.834.834 0 000 1.666h2.5a.834.834 0 000-1.666z" fill="#277771"/></svg>