<svg width="22" height="22" fill="none" xmlns="http://www.w3.org/2000/svg"><path d="M5.5 2.2A2.2 2.2 0 017.7 0h6.6a2.2 2.2 0 012.2 2.2v2.2h4.4a1.1 1.1 0 010 2.2h-1.176l-.954 13.356A2.2 2.2 0 0116.576 22H5.423a2.2 2.2 0 01-2.195-2.044L2.277 6.6H1.1a1.1 1.1 0 110-2.2h4.4V2.2zm2.2 2.2h6.6V2.2H7.7v2.2zM4.481 6.6l.943 13.2h11.153l.943-13.2H4.48zM8.8 8.8a1.1 1.1 0 011.1 1.1v6.6a1.1 1.1 0 01-2.2 0V9.9a1.1 1.1 0 011.1-1.1zm4.4 0a1.1 1.1 0 011.1 1.1v6.6a1.1 1.1 0 01-2.2 0V9.9a1.1 1.1 0 011.1-1.1z" fill="#9F1D1D"/></svg>